# Blender v2.92.0 OBJ File: 'postbox.blend'
# www.blender.org
mtllib postbox.mtl
o Cube
v 1.000000 1.000000 -1.000000
v 1.000000 -1.000000 -1.000000
v 1.000000 -1.000000 1.000000
v -1.000000 1.000000 -1.000000
v -1.000000 -1.000000 -1.000000
v -1.000000 1.000000 1.000000
v -1.000000 -1.000000 1.000000
v 0.000000 2.000000 -1.000000
v 0.000000 2.000000 1.000000
v 0.195090 1.980785 -1.000000
v 0.195090 1.980785 1.000000
v 0.382684 1.923879 -1.000000
v 0.382684 1.923879 1.000000
v 0.555570 1.831469 -1.000000
v 0.555570 1.831469 1.000000
v 0.707107 1.707107 -1.000000
v 0.707107 1.707106 1.000000
v 0.831470 1.555570 -1.000000
v 0.831470 1.555570 1.000000
v 0.923880 1.382683 -1.000000
v 0.923880 1.382683 1.000000
v 0.980785 1.195090 -1.000000
v 0.980785 1.195090 1.000000
v 1.000000 1.000000 1.000000
v 0.000000 1.000000 -1.000000
v 0.000000 -1.000000 1.000000
v 0.000000 1.000000 1.000000
v 0.000000 -1.000000 -1.000000
v -0.980785 1.195091 -1.000000
v -0.980785 1.195091 1.000000
v -0.923879 1.382684 -1.000000
v -0.923879 1.382684 1.000000
v -0.831469 1.555571 -1.000000
v -0.831469 1.555571 1.000000
v -0.707106 1.707107 -1.000000
v -0.707106 1.707107 1.000000
v -0.555569 1.831470 -1.000000
v -0.555569 1.831470 1.000000
v -0.382682 1.923880 -1.000000
v -0.382682 1.923880 1.000000
v -0.195089 1.980785 -1.000000
v -0.195089 1.980785 1.000000
vt 0.833333 0.330816
vt 0.669183 0.002517
vt 0.833333 0.002517
vt 0.664150 0.664150
vt 0.335850 0.335850
vt 0.664150 0.335850
vt 0.664150 0.002517
vt 0.500000 0.330816
vt 0.500000 0.002517
vt 0.997483 0.335850
vt 0.669183 0.664150
vt 0.669183 0.335850
vt 0.166667 0.850715
vt 0.002517 0.522416
vt 0.166667 0.522416
vt 0.997483 0.330816
vt 0.997483 0.002517
vt 0.335850 0.330816
vt 0.335850 0.002517
vt 0.330816 0.850715
vt 0.330816 0.522416
vt 0.553112 0.949405
vt 0.532698 0.924530
vt 0.669183 0.833333
vt 0.348345 0.896150
vt 0.339004 0.865357
vt 0.500000 0.833333
vt 0.500000 0.669184
vt 0.467976 0.672338
vt 0.606366 0.681679
vt 0.637159 0.672338
vt 0.437182 0.681679
vt 0.335850 0.833333
vt 0.339004 0.801309
vt 0.348345 0.770516
vt 0.363514 0.742137
vt 0.383928 0.717262
vt 0.408803 0.696848
vt 0.500000 0.997483
vt 0.467976 0.994329
vt 0.437182 0.984988
vt 0.408803 0.969819
vt 0.383928 0.949405
vt 0.363514 0.924530
vt 0.517529 0.896151
vt 0.508188 0.865357
vt 0.505034 0.833333
vt 0.669183 0.997483
vt 0.637159 0.994329
vt 0.606366 0.984988
vt 0.577987 0.969819
vt 0.669183 0.669184
vt 0.508188 0.801309
vt 0.517529 0.770516
vt 0.532698 0.742137
vt 0.553112 0.717262
vt 0.577987 0.696848
vt 0.669183 0.330816
vt 0.335850 0.664150
vt 0.664150 0.330816
vt 0.997483 0.664150
vt 0.002517 0.850715
vt 0.330816 0.259950
vt 0.002517 0.292129
vt 0.002517 0.259950
vt 0.330816 0.292128
vt 0.002517 0.324308
vt 0.330816 0.324307
vt 0.002517 0.356486
vt 0.330816 0.356486
vt 0.002517 0.388665
vt 0.330816 0.420844
vt 0.002517 0.420845
vt 0.002517 0.453024
vt 0.330816 0.453023
vt 0.002517 0.485203
vt 0.330816 0.485202
vt 0.002517 0.517382
vt 0.002517 0.002517
vt 0.330816 0.034697
vt 0.002517 0.034696
vt 0.002517 0.066875
vt 0.330816 0.066876
vt 0.002517 0.099054
vt 0.330816 0.099055
vt 0.002517 0.131233
vt 0.330816 0.131234
vt 0.002517 0.163412
vt 0.330816 0.195592
vt 0.002517 0.195592
vt 0.002517 0.227771
vt 0.330816 0.227771
vt 0.330816 0.388665
vt 0.330816 0.517381
vt 0.330816 0.002518
vt 0.330816 0.163413
vn 0.0000 0.0000 1.0000
vn -1.0000 0.0000 0.0000
vn 0.0000 -1.0000 0.0000
vn 1.0000 -0.0000 0.0000
vn 0.0000 0.0000 -1.0000
vn 0.0000 1.0000 0.0000
vn 0.1951 0.9808 0.0000
vn 0.3827 0.9239 0.0000
vn 0.5556 0.8315 0.0000
vn 0.7071 0.7071 0.0000
vn 0.8315 0.5556 0.0000
vn 0.9239 0.3827 0.0000
vn 0.9808 0.1951 0.0000
vn 0.9952 0.0980 0.0000
vn -0.9952 0.0980 0.0000
vn -0.9808 0.1951 0.0000
vn -0.9239 0.3827 0.0000
vn -0.8315 0.5556 0.0000
vn -0.7071 0.7071 0.0000
vn -0.5556 0.8315 0.0000
vn -0.3827 0.9239 0.0000
vn -0.1951 0.9808 0.0000
usemtl Material
s off
f 27/1/1 7/2/1 26/3/1
f 6/4/2 5/5/2 7/6/2
f 2/7/3 26/8/3 28/9/3
f 2/10/4 24/11/4 3/12/4
f 25/13/5 2/14/5 28/15/5
f 24/16/1 26/3/1 3/17/1
f 28/9/3 7/18/3 5/19/3
f 4/20/5 28/15/5 5/21/5
f 17/22/1 15/23/1 27/24/1
f 39/25/5 41/26/5 25/27/5
f 1/28/5 25/27/5 22/29/5
f 32/30/1 30/31/1 27/24/1
f 20/32/5 22/29/5 25/27/5
f 25/27/5 8/33/5 10/34/5
f 12/35/5 25/27/5 10/34/5
f 12/35/5 14/36/5 25/27/5
f 14/36/5 16/37/5 25/27/5
f 16/37/5 18/38/5 25/27/5
f 18/38/5 20/32/5 25/27/5
f 41/26/5 8/33/5 25/27/5
f 25/27/5 4/39/5 29/40/5
f 29/40/5 31/41/5 25/27/5
f 31/41/5 33/42/5 25/27/5
f 33/42/5 35/43/5 25/27/5
f 35/43/5 37/44/5 25/27/5
f 37/44/5 39/25/5 25/27/5
f 13/45/1 11/46/1 27/24/1
f 11/46/1 9/47/1 27/24/1
f 27/24/1 24/48/1 23/49/1
f 13/45/1 27/24/1 15/23/1
f 23/49/1 21/50/1 27/24/1
f 21/50/1 19/51/1 27/24/1
f 19/51/1 17/22/1 27/24/1
f 6/52/1 27/24/1 30/31/1
f 27/24/1 9/47/1 42/53/1
f 40/54/1 27/24/1 42/53/1
f 40/54/1 38/55/1 27/24/1
f 38/55/1 36/56/1 27/24/1
f 36/56/1 34/57/1 27/24/1
f 34/57/1 32/30/1 27/24/1
f 27/1/1 6/58/1 7/2/1
f 6/4/2 4/59/2 5/5/2
f 2/7/3 3/60/3 26/8/3
f 2/10/4 1/61/4 24/11/4
f 25/13/5 1/62/5 2/14/5
f 24/16/1 27/1/1 26/3/1
f 28/9/3 26/8/3 7/18/3
f 4/20/5 25/13/5 28/15/5
s 1
f 9/63/6 10/64/7 8/65/6
f 11/66/7 12/67/8 10/64/7
f 13/68/8 14/69/9 12/67/8
f 15/70/9 16/71/10 14/69/9
f 16/71/10 19/72/11 18/73/11
f 19/72/11 20/74/12 18/73/11
f 21/75/12 22/76/13 20/74/12
f 23/77/13 1/78/14 22/76/13
f 4/79/15 30/80/16 29/81/16
f 30/80/16 31/82/17 29/81/16
f 32/83/17 33/84/18 31/82/17
f 34/85/18 35/86/19 33/84/18
f 36/87/19 37/88/20 35/86/19
f 37/88/20 40/89/21 39/90/21
f 40/89/21 41/91/22 39/90/21
f 42/92/22 8/65/6 41/91/22
f 9/63/6 11/66/7 10/64/7
f 11/66/7 13/68/8 12/67/8
f 13/68/8 15/70/9 14/69/9
f 15/70/9 17/93/10 16/71/10
f 16/71/10 17/93/10 19/72/11
f 19/72/11 21/75/12 20/74/12
f 21/75/12 23/77/13 22/76/13
f 23/77/13 24/94/14 1/78/14
f 4/79/15 6/95/15 30/80/16
f 30/80/16 32/83/17 31/82/17
f 32/83/17 34/85/18 33/84/18
f 34/85/18 36/87/19 35/86/19
f 36/87/19 38/96/20 37/88/20
f 37/88/20 38/96/20 40/89/21
f 40/89/21 42/92/22 41/91/22
f 42/92/22 9/63/6 8/65/6
